<?xml version="1.0" encoding="UTF-8"?>
<svg width="156px" height="34px" viewBox="0 0 156 34" version="1.1" xmlns="http://www.w3.org/2000/svg" xmlns:xlink="http://www.w3.org/1999/xlink">
    <!-- Generator: Sketch 53.2 (72643) - https://sketchapp.com -->
    <title>Artboard Copy 2</title>
    <desc>Created with Sketch.</desc>
    <defs>
        <path d="M26.9711914,21.8432617 C26.7221667,25.2856617 25.4514275,27.9955956 23.1589355,29.9731445 C20.8664436,31.9506935 17.8452336,32.9394531 14.0952148,32.9394531 C9.99363184,32.9394531 6.76734574,31.5588517 4.41625977,28.7976074 C2.06517379,26.0363631 0.889648438,22.2461178 0.889648438,17.4267578 L0.889648438,15.4711914 C0.889648438,12.3950042 1.43163521,9.68507031 2.515625,7.34130859 C3.59961479,4.99754687 5.14867157,3.19946915 7.1628418,1.94702148 C9.17701202,0.694573816 11.5170765,0.068359375 14.1831055,0.068359375 C17.8745302,0.068359375 20.8481333,1.05711902 23.1040039,3.03466797 C25.3598746,5.01221692 26.6635725,7.78806807 27.0151367,11.3623047 L20.4233398,11.3623047 C20.2622062,9.29686467 19.6872608,7.79907692 18.6984863,6.86889648 C17.7097119,5.93871605 16.2046,5.47363281 14.1831055,5.47363281 C11.9858289,5.47363281 10.3415582,6.26097845 9.25024414,7.83569336 C8.15893009,9.41040826 7.59863296,11.8530108 7.56933594,15.1635742 L7.56933594,17.5805664 C7.56933594,21.0376149 8.09301234,23.5644451 9.14038086,25.1611328 C10.1877494,26.7578205 11.8393442,27.5561523 14.0952148,27.5561523 C16.1313578,27.5561523 17.651118,27.0910691 18.654541,26.1608887 C19.657964,25.2307082 20.2329094,23.7915136 20.3793945,21.8432617 L26.9711914,21.8432617 Z M50.5478516,18.6352539 L37.8916016,18.6352539 L37.8916016,27.2045898 L52.7451172,27.2045898 L52.7451172,32.5 L31.2998047,32.5 L31.2998047,0.5078125 L52.7011719,0.5078125 L52.7011719,5.84716797 L37.8916016,5.84716797 L37.8916016,13.4716797 L50.5478516,13.4716797 L50.5478516,18.6352539 Z M82.6279297,32.5 L76.0361328,32.5 L63.2041016,11.4501953 L63.2041016,32.5 L56.6123047,32.5 L56.6123047,0.5078125 L63.2041016,0.5078125 L76.0581055,21.6015625 L76.0581055,0.5078125 L82.6279297,0.5078125 L82.6279297,32.5 Z M104.974121,24.1064453 C104.974121,22.8613219 104.534672,21.9055209 103.655762,21.2390137 C102.776851,20.5725064 101.194836,19.8693885 98.909668,19.1296387 C96.6245003,18.3898889 94.8154364,17.6611364 93.4824219,16.9433594 C89.8495912,14.9804589 88.0332031,12.3364424 88.0332031,9.01123047 C88.0332031,7.2827062 88.5202588,5.74097357 89.4943848,4.38598633 C90.4685107,3.03099908 91.8674225,1.97266006 93.6911621,1.2109375 C95.5149017,0.449214941 97.5620004,0.068359375 99.8325195,0.068359375 C102.117687,0.068359375 104.1538,0.482173596 105.940918,1.30981445 C107.728036,2.13745531 109.115962,3.30565652 110.104736,4.81445312 C111.093511,6.32324973 111.587891,8.03709978 111.587891,9.95605469 L104.996094,9.95605469 C104.996094,8.49120361 104.534673,7.35229899 103.611816,6.53930664 C102.68896,5.72631429 101.392586,5.31982422 99.7226562,5.31982422 C98.1113201,5.31982422 96.8588912,5.66039698 95.965332,6.34155273 C95.0717729,7.02270848 94.625,7.91991631 94.625,9.03320312 C94.625,10.0732474 95.1486764,10.9448207 96.1960449,11.6479492 C97.2434134,12.3510777 98.7851461,13.0102508 100.821289,13.6254883 C104.571308,14.7534236 107.303214,16.1523354 109.01709,17.8222656 C110.730966,19.4921958 111.587891,21.5722532 111.587891,24.0625 C111.587891,26.8310685 110.540538,29.0026777 108.445801,30.5773926 C106.351064,32.1521075 103.531268,32.9394531 99.9863281,32.9394531 C97.5253783,32.9394531 95.2841898,32.4890182 93.2626953,31.5881348 C91.2412008,30.6872514 89.6994682,29.4531328 88.6374512,27.8857422 C87.5754341,26.3183515 87.0444336,24.5019635 87.0444336,22.4365234 L93.6582031,22.4365234 C93.6582031,25.9668145 95.767557,27.7319336 99.9863281,27.7319336 C101.553719,27.7319336 102.776851,27.4133333 103.655762,26.776123 C104.534672,26.1389128 104.974121,25.2490292 104.974121,24.1064453 Z M123.057617,32.5 L116.46582,32.5 L116.46582,0.5078125 L123.057617,0.5078125 L123.057617,32.5 Z M155.445312,17.2290039 C155.445312,20.3784337 154.888677,23.1396366 153.775391,25.5126953 C152.662104,27.8857541 151.069102,29.7167904 148.996338,31.0058594 C146.923574,32.2949283 144.546888,32.9394531 141.866211,32.9394531 C139.21483,32.9394531 136.849131,32.3022525 134.769043,31.027832 C132.688954,29.7534116 131.077642,27.9333614 129.935059,25.567627 C128.792475,23.2018925 128.213867,20.4809724 128.199219,17.4047852 L128.199219,15.8227539 C128.199219,12.6733241 128.76684,9.90113502 129.9021,7.50610352 C131.037359,5.11107201 132.641347,3.27271149 134.714111,1.9909668 C136.786876,0.709222107 139.156237,0.068359375 141.822266,0.068359375 C144.488295,0.068359375 146.857656,0.709222107 148.93042,1.9909668 C151.003184,3.27271149 152.607172,5.11107201 153.742432,7.50610352 C154.877691,9.90113502 155.445312,12.666 155.445312,15.8007812 L155.445312,17.2290039 Z M148.765625,15.7788086 C148.765625,12.4242996 148.165045,9.875497 146.963867,8.13232422 C145.762689,6.38915144 144.048839,5.51757812 141.822266,5.51757812 C139.610341,5.51757812 137.903815,6.37816522 136.702637,8.09936523 C135.501459,9.82056525 134.893555,12.3437334 134.878906,15.6689453 L134.878906,17.2290039 C134.878906,20.4956218 135.479486,23.0297761 136.680664,24.831543 C137.881842,26.6333098 139.61034,27.5341797 141.866211,27.5341797 C144.078136,27.5341797 145.777338,26.6662684 146.963867,24.9304199 C148.150397,23.1945714 148.750976,20.6640791 148.765625,17.3388672 L148.765625,15.7788086 Z" id="path-1"></path>
    </defs>
    <g id="Artboard-Copy-2" stroke="none" stroke-width="1" fill="none" fill-rule="evenodd">
        <rect fill="#000000" x="0" y="0" width="156" height="34"></rect>
        <g id="CENSIO" fill-rule="nonzero" fill="#FFFFFF">
            <use xlink:href="#path-1"></use>
            <use xlink:href="#path-1"></use>
        </g>
    </g>
</svg>